<mxfile host="Electron" modified="2024-02-28T14:35:36.941Z" agent="Mozilla/5.0 (Windows NT 10.0; Win64; x64) AppleWebKit/537.36 (KHTML, like Gecko) draw.io/23.1.5 Chrome/120.0.6099.109 Electron/28.1.0 Safari/537.36" etag="eSPmCeOlEfjUJHpTO-Jf" version="23.1.5" type="device">
  <diagram name="Pagina-1" id="QJNfUoUP6y4SfynT6RsD">
    <mxGraphModel dx="965" dy="567" grid="1" gridSize="10" guides="1" tooltips="1" connect="1" arrows="1" fold="1" page="1" pageScale="1" pageWidth="827" pageHeight="1169" math="0" shadow="0">
      <root>
        <mxCell id="0" />
        <mxCell id="1" parent="0" />
        <mxCell id="6oQNWkCMD8oPm-OxZQ5e-2" value="&lt;font style=&quot;font-size: 21px;&quot;&gt;GoBabyGo2.1&lt;/font&gt;" style="rounded=0;whiteSpace=wrap;html=1;" vertex="1" parent="1">
          <mxGeometry x="320" y="50" width="180" height="70" as="geometry" />
        </mxCell>
        <mxCell id="6oQNWkCMD8oPm-OxZQ5e-3" value="inputs" style="swimlane;fontStyle=0;childLayout=stackLayout;horizontal=1;startSize=30;horizontalStack=0;resizeParent=1;resizeParentMax=0;resizeLast=0;collapsible=1;marginBottom=0;whiteSpace=wrap;html=1;" vertex="1" parent="1">
          <mxGeometry x="90" y="245" width="140" height="160" as="geometry" />
        </mxCell>
        <mxCell id="6oQNWkCMD8oPm-OxZQ5e-4" value="afstandsbediening:&lt;br&gt;&lt;br&gt;-met voorrang op de joystick&lt;div&gt;&lt;br/&gt;&lt;/div&gt;" style="text;strokeColor=none;fillColor=none;align=left;verticalAlign=middle;spacingLeft=4;spacingRight=4;overflow=hidden;points=[[0,0.5],[1,0.5]];portConstraint=eastwest;rotatable=0;whiteSpace=wrap;html=1;" vertex="1" parent="6oQNWkCMD8oPm-OxZQ5e-3">
          <mxGeometry y="30" width="140" height="100" as="geometry" />
        </mxCell>
        <mxCell id="6oQNWkCMD8oPm-OxZQ5e-5" value="de joystick op de auto zelf" style="text;strokeColor=none;fillColor=none;align=left;verticalAlign=middle;spacingLeft=4;spacingRight=4;overflow=hidden;points=[[0,0.5],[1,0.5]];portConstraint=eastwest;rotatable=0;whiteSpace=wrap;html=1;" vertex="1" parent="6oQNWkCMD8oPm-OxZQ5e-3">
          <mxGeometry y="130" width="140" height="30" as="geometry" />
        </mxCell>
        <mxCell id="6oQNWkCMD8oPm-OxZQ5e-8" value="functions" style="swimlane;fontStyle=0;childLayout=stackLayout;horizontal=1;startSize=30;horizontalStack=0;resizeParent=1;resizeParentMax=0;resizeLast=0;collapsible=1;marginBottom=0;whiteSpace=wrap;html=1;" vertex="1" parent="1">
          <mxGeometry x="340" y="245" width="140" height="160" as="geometry" />
        </mxCell>
        <mxCell id="6oQNWkCMD8oPm-OxZQ5e-9" value="-hoog-laag signaal&lt;br&gt;&lt;br&gt;-De joystick&amp;nbsp;in het midden vooraan in de stuurcabine zodat het&lt;br&gt;bereikbaar is voor alle soorten handicaps" style="text;strokeColor=none;fillColor=none;align=left;verticalAlign=middle;spacingLeft=4;spacingRight=4;overflow=hidden;points=[[0,0.5],[1,0.5]];portConstraint=eastwest;rotatable=0;whiteSpace=wrap;html=1;" vertex="1" parent="6oQNWkCMD8oPm-OxZQ5e-8">
          <mxGeometry y="30" width="140" height="130" as="geometry" />
        </mxCell>
        <mxCell id="6oQNWkCMD8oPm-OxZQ5e-12" value="outputs" style="swimlane;fontStyle=0;childLayout=stackLayout;horizontal=1;startSize=30;horizontalStack=0;resizeParent=1;resizeParentMax=0;resizeLast=0;collapsible=1;marginBottom=0;whiteSpace=wrap;html=1;" vertex="1" parent="1">
          <mxGeometry x="590" y="245" width="140" height="220" as="geometry" />
        </mxCell>
        <mxCell id="6oQNWkCMD8oPm-OxZQ5e-13" value="&lt;p class=&quot;MsoNormal&quot;&gt;&lt;span style=&quot;background-color: initial;&quot;&gt;de auto kan alle richtingen uit met &lt;/span&gt;&lt;span style=&quot;background-color: initial;&quot;&gt;3 motoren:&lt;/span&gt;&lt;br&gt;&lt;/p&gt;&lt;p class=&quot;MsoNormal&quot;&gt;&lt;span style=&quot;background-color: initial;&quot;&gt;-1 aan beide achterwielen voor een voorwaartse of achterwaartse beweging&lt;/span&gt;&lt;/p&gt;&lt;span style=&quot;background-color: initial;&quot;&gt;-1 aan het stuur om links-rechts te bewegen&lt;/span&gt;" style="text;strokeColor=none;fillColor=none;align=left;verticalAlign=middle;spacingLeft=4;spacingRight=4;overflow=hidden;points=[[0,0.5],[1,0.5]];portConstraint=eastwest;rotatable=0;whiteSpace=wrap;html=1;" vertex="1" parent="6oQNWkCMD8oPm-OxZQ5e-12">
          <mxGeometry y="30" width="140" height="190" as="geometry" />
        </mxCell>
        <mxCell id="6oQNWkCMD8oPm-OxZQ5e-16" style="edgeStyle=orthogonalEdgeStyle;rounded=0;orthogonalLoop=1;jettySize=auto;html=1;" edge="1" parent="1" source="6oQNWkCMD8oPm-OxZQ5e-4">
          <mxGeometry relative="1" as="geometry">
            <mxPoint x="340" y="290" as="targetPoint" />
            <Array as="points">
              <mxPoint x="340" y="290" />
            </Array>
          </mxGeometry>
        </mxCell>
        <mxCell id="6oQNWkCMD8oPm-OxZQ5e-18" value="" style="whiteSpace=wrap;html=1;aspect=fixed;fillStyle=auto;fillColor=none;" vertex="1" parent="1">
          <mxGeometry x="68.75" y="160" width="682.5" height="390" as="geometry" />
        </mxCell>
        <mxCell id="6oQNWkCMD8oPm-OxZQ5e-19" value="voeding:een 12V 1,6A oplaadbare batterij" style="rounded=0;whiteSpace=wrap;html=1;" vertex="1" parent="1">
          <mxGeometry x="350" y="435" width="120" height="60" as="geometry" />
        </mxCell>
        <mxCell id="6oQNWkCMD8oPm-OxZQ5e-20" style="edgeStyle=orthogonalEdgeStyle;rounded=0;orthogonalLoop=1;jettySize=auto;html=1;" edge="1" parent="1">
          <mxGeometry relative="1" as="geometry">
            <mxPoint x="480" y="290" as="sourcePoint" />
            <mxPoint x="590" y="290" as="targetPoint" />
            <Array as="points">
              <mxPoint x="590" y="290" />
            </Array>
          </mxGeometry>
        </mxCell>
      </root>
    </mxGraphModel>
  </diagram>
</mxfile>
